<?xml version="1.0" encoding="UTF-8"?>
<!DOCTYPE svg PUBLIC "-//W3C//DTD SVG 1.1//EN" "http://www.w3.org/Graphics/SVG/1.1/DTD/svg11.dtd">
<!-- Creator: CorelDRAW -->
<svg xmlns="http://www.w3.org/2000/svg" xml:space="preserve" width="59.2666mm" height="82.9732mm" version="1.1" style="shape-rendering:geometricPrecision; text-rendering:geometricPrecision; image-rendering:optimizeQuality; fill-rule:evenodd; clip-rule:evenodd"
viewBox="0 0 5926.66 8297.32"
 xmlns:xlink="http://www.w3.org/1999/xlink"
 xmlns:xodm="http://www.corel.com/coreldraw/odm/2003">
 <defs>
  <style type="text/css">
   <![CDATA[
    .fil2 {fill:#1A6104}
    .fil0 {fill:#5EDA2A}
    .fil1 {fill:#DEDF38}
   ]]>
  </style>
 </defs>
 <g id="Layer_x0020_1">
  <metadata id="CorelCorpID_0Corel-Layer"/>
  <g id="_2107885718928">
   <path class="fil0" d="M237.94 733.78c15.44,1422.51 5.62,2537.35 5.62,2537.35 146.88,-608.09 963.84,-1525.12 2030.3,-1887.73 1592.18,-550.26 2566.75,188.75 2491.84,99.53 450.77,-790.7 770.57,-1386.66 770.57,-1386.66 -2866.23,-55.48 -4746.08,25.64 -4746.08,25.64 -328.37,88.77 -512.46,292.72 -552.25,611.87z"/>
   <path class="fil1" d="M3594.8 6201.27c148.25,123.18 295.03,306.21 360.68,357 -994.26,993.06 -2258.13,1326.63 -3410.5,780.69 1087.86,822.16 1868.19,901.27 3010.28,878.23 778,-49.5 1222.72,-407.8 1777.73,-1042.77 211.24,137.87 538.64,222.88 538.64,222.88 -126.07,-1733.67 -189.08,-2600.51 -189.08,-2600.51 -1391.82,936.31 -2087.75,1404.48 -2087.75,1404.48z"/>
   <path class="fil2" d="M4367.84 3311.17c-604.36,-294.36 -1166.85,-306.21 -1687.46,-35.59 -716.68,333.08 -1030.13,946.54 -940.4,1840.3 207.4,981.86 848.3,1488.79 1922.68,1520.84 -725.2,576.34 -1595.17,827.59 -2609.88,753.71 -313.59,-211.34 -590.41,-615.56 -830.49,-1212.67 -511.17,-2294.73 149.35,-3816.64 1981.58,-4565.67 1106.84,-432.61 2201.63,-294.3 3284.36,414.92 0,0 -373.46,428.07 -1120.39,1284.16z"/>
  </g>
 </g>
</svg>
